<svg version="1.1" id="Layer_1" xmlns="http://www.w3.org/2000/svg" xmlns:xlink="http://www.w3.org/1999/xlink" x="0px" y="0px"
	 width="100%" viewBox="0 0 900 300" enable-background="new 0 0 900 300" xml:space="preserve">
<path fill="#000000" opacity="1.000000" stroke="none" 
	d="
M628.000000,301.000000 
	C418.666656,301.000000 209.833328,301.000000 1.000000,301.000000 
	C1.000000,201.000000 1.000000,101.000000 1.000000,1.000000 
	C301.000000,1.000000 601.000000,1.000000 901.000000,1.000000 
	C901.000000,101.000000 901.000000,201.000000 901.000000,301.000000 
	C810.166687,301.000000 719.333313,301.000000 628.000000,301.000000 
M822.366028,142.501038 
	C822.366028,136.383728 822.366028,130.266418 822.366028,124.138397 
	C828.880371,124.138397 834.808777,124.138397 841.118347,124.138397 
	C841.118347,149.115387 841.118347,173.854034 841.118347,198.753204 
	C847.566223,198.753204 853.625793,198.753204 859.989563,198.753204 
	C859.989563,174.215286 860.022095,149.925812 859.976501,125.636490 
	C859.951965,112.570511 852.281372,105.022018 839.074707,104.995293 
	C821.748840,104.960220 804.422729,104.964951 787.096863,104.993782 
	C773.347839,105.016655 765.981079,112.468796 765.965759,126.376907 
	C765.940796,149.033890 765.958862,171.690918 765.958801,194.347931 
	C765.958801,195.791763 765.958862,197.235611 765.958862,198.693665 
	C772.490845,198.693665 778.546265,198.693665 785.000793,198.693665 
	C785.000793,173.654175 785.000793,148.921112 785.000793,124.139420 
	C791.333984,124.139420 797.259460,124.139420 803.567566,124.139420 
	C803.567566,149.136612 803.567566,173.894089 803.567566,198.727570 
	C810.041870,198.727570 816.125244,198.727570 822.366028,198.727570 
	C822.366028,180.135300 822.366028,161.818039 822.366028,142.501038 
M117.072220,177.375427 
	C117.583939,180.770615 115.153801,180.095291 113.264915,180.096771 
	C99.436333,180.107620 85.607719,180.102615 71.779121,180.102615 
	C61.991627,180.102615 52.204128,180.102615 42.196079,180.102615 
	C42.196079,186.565842 42.196079,192.621048 42.196079,198.920090 
	C67.887856,198.920090 93.345291,199.128082 118.796173,198.810501 
	C128.060364,198.694901 135.475220,190.546402 135.897720,181.125275 
	C136.151291,175.471451 135.995346,169.798279 135.985901,164.133850 
	C135.962296,149.980179 128.669006,142.637726 114.456161,142.565842 
	C102.293961,142.504318 90.131218,142.553024 77.968712,142.552994 
	C72.375427,142.552979 66.782135,142.552994 61.114830,142.552994 
	C61.114830,136.057175 61.114830,130.145370 61.114830,123.841537 
	C86.099190,123.841537 110.839554,123.841537 135.730194,123.841537 
	C135.730194,117.385391 135.730194,111.327148 135.730194,105.073952 
	C110.010109,105.073952 84.546761,104.863457 59.090122,105.184692 
	C49.802498,105.301888 42.427952,113.465042 42.052605,122.893463 
	C41.820812,128.715973 41.942478,134.554062 41.965755,140.384918 
	C42.019875,153.939789 49.328575,161.292938 62.985847,161.401794 
	C73.981384,161.489441 84.978180,161.419800 95.974419,161.419876 
	C102.900574,161.419937 109.826729,161.419876 117.072609,161.419876 
	C117.072609,166.774078 117.072609,171.583557 117.072220,177.375427 
M342.989594,170.500000 
	C342.989594,155.675476 343.015503,140.850906 342.981934,126.026459 
	C342.951447,112.564690 335.416351,105.019447 321.970459,104.994553 
	C304.647400,104.962471 287.324280,104.963188 270.001221,104.994560 
	C256.500488,105.019012 248.991562,112.489655 248.969391,125.967255 
	C248.931595,148.953583 248.956238,171.940018 248.966125,194.926407 
	C248.966675,196.199615 249.071930,197.472809 249.124893,198.665939 
	C255.548172,198.665939 261.602753,198.665939 268.073639,198.665939 
	C268.073639,186.085648 268.073639,173.837341 268.073639,161.688171 
	C286.913788,161.688171 305.325684,161.688171 324.162842,161.688171 
	C324.162842,174.196594 324.162842,186.443024 324.162842,198.710098 
	C330.654602,198.710098 336.714966,198.710098 342.989594,198.710098 
	C342.989594,189.445953 342.989594,180.472977 342.989594,170.500000 
M530.917480,193.414856 
	C530.917480,195.183365 530.917480,196.951889 530.917480,198.677460 
	C537.498291,198.677460 543.552673,198.677460 549.845825,198.677460 
	C549.845825,174.229401 549.888611,150.107864 549.828979,125.986588 
	C549.795837,112.570496 542.141174,105.017357 528.689270,104.992302 
	C511.538300,104.960365 494.387238,104.968292 477.236267,104.989922 
	C463.009644,105.007858 455.751862,112.226135 455.726196,126.472862 
	C455.685120,149.285263 455.715210,172.097824 455.715179,194.910309 
	C455.715179,196.173264 455.715179,197.436234 455.715179,198.647980 
	C462.287720,198.647980 468.327545,198.647980 474.871704,198.647980 
	C474.871704,186.064896 474.871704,173.831650 474.871704,161.726700 
	C493.790497,161.726700 512.193115,161.726700 530.917480,161.726700 
	C530.917480,172.163864 530.917480,182.299393 530.917480,193.414856 
M604.170166,163.329681 
	C614.531494,173.691711 624.924561,184.022385 635.236023,194.433807 
	C638.593689,197.824005 642.150269,200.312180 647.150208,198.339508 
	C652.355225,196.285965 653.257080,191.983673 653.239502,186.949371 
	C653.148804,160.972641 653.200378,134.995438 653.190063,109.018387 
	C653.189575,107.755661 653.073730,106.492989 653.017639,105.352371 
	C646.569641,105.352371 640.523621,105.352371 633.971191,105.352371 
	C633.971191,125.697266 633.971191,145.676437 633.971191,167.195953 
	C631.844604,164.697464 630.760010,163.231476 629.485779,161.954849 
	C611.840149,144.276581 594.149292,126.643425 576.520203,108.948738 
	C573.188965,105.605110 569.561951,103.775200 564.902283,105.812950 
	C560.527649,107.726059 559.077820,111.368401 559.083801,115.914635 
	C559.119690,143.057190 559.106323,170.199783 559.128601,197.342361 
	C559.128967,197.793335 559.369995,198.244110 559.505676,198.719452 
	C565.674316,198.719452 571.732056,198.719452 578.119446,198.719452 
	C578.119446,178.383347 578.119446,158.331818 578.119446,137.244385 
	C587.091614,146.228729 595.380859,154.529221 604.170166,163.329681 
M731.508301,123.900803 
	C739.753052,123.900803 747.997803,123.900803 756.336731,123.900803 
	C756.336731,117.268997 756.336731,111.332199 756.336731,105.350677 
	C724.925781,105.350677 693.742126,105.350677 662.602356,105.350677 
	C662.602356,111.649979 662.602356,117.578087 662.602356,123.899437 
	C675.122070,123.899437 687.368835,123.899437 699.715210,123.899437 
	C699.715210,142.841599 699.715210,161.381714 699.715210,180.326782 
	C687.169556,180.326782 674.928101,180.326782 662.531860,180.326782 
	C662.531860,186.662659 662.531860,192.590775 662.531860,198.674866 
	C693.920410,198.674866 725.098083,198.674866 756.307861,198.674866 
	C756.307861,192.404404 756.307861,186.468475 756.307861,180.113251 
	C743.822266,180.113251 731.582764,180.113251 719.252502,180.113251 
	C719.252502,161.153137 719.252502,142.617447 719.252502,123.900803 
	C723.214661,123.900803 726.863953,123.900803 731.508301,123.900803 
M183.022873,153.500000 
	C183.022873,168.587738 183.022873,183.675476 183.022873,198.669891 
	C189.652649,198.669891 195.712662,198.669891 202.132599,198.669891 
	C202.132599,173.603363 202.132599,148.871017 202.132599,123.713852 
	C214.730118,123.713852 226.958023,123.713852 239.184814,123.713852 
	C239.184814,117.239052 239.184814,111.200943 239.184814,105.302162 
	C207.749222,105.302162 176.690994,105.302162 145.563889,105.302162 
	C145.563889,111.549454 145.563889,117.475426 145.563889,123.982254 
	C158.150940,123.982254 170.511398,123.982254 183.022873,123.982254 
	C183.022873,133.876816 183.022873,143.188400 183.022873,153.500000 
M389.835144,159.499924 
	C389.835144,172.577301 389.835144,185.654678 389.835144,198.647385 
	C396.441833,198.647385 402.486145,198.647385 408.930115,198.647385 
	C408.930115,173.585388 408.930115,148.879333 408.930115,123.710709 
	C421.562836,123.710709 433.790497,123.710709 446.011230,123.710709 
	C446.011230,117.298340 446.011230,111.356857 446.011230,105.312965 
	C414.655853,105.312965 383.487518,105.312965 352.326782,105.312965 
	C352.326782,111.571518 352.326782,117.497597 352.326782,124.013687 
	C364.898224,124.013687 377.256195,124.013687 389.835144,124.013687 
	C389.835144,135.905090 389.835144,147.202499 389.835144,159.499924 
z"/>
<path fill="#FDFDFD" opacity="1.000000" stroke="none" 
	d="
M822.366028,143.000916 
	C822.366028,161.818039 822.366028,180.135300 822.366028,198.727570 
	C816.125244,198.727570 810.041870,198.727570 803.567566,198.727570 
	C803.567566,173.894089 803.567566,149.136612 803.567566,124.139420 
	C797.259460,124.139420 791.333984,124.139420 785.000793,124.139420 
	C785.000793,148.921112 785.000793,173.654175 785.000793,198.693665 
	C778.546265,198.693665 772.490845,198.693665 765.958862,198.693665 
	C765.958862,197.235611 765.958801,195.791763 765.958801,194.347931 
	C765.958862,171.690918 765.940796,149.033890 765.965759,126.376907 
	C765.981079,112.468796 773.347839,105.016655 787.096863,104.993782 
	C804.422729,104.964951 821.748840,104.960220 839.074707,104.995293 
	C852.281372,105.022018 859.951965,112.570511 859.976501,125.636490 
	C860.022095,149.925812 859.989563,174.215286 859.989563,198.753204 
	C853.625793,198.753204 847.566223,198.753204 841.118347,198.753204 
	C841.118347,173.854034 841.118347,149.115387 841.118347,124.138397 
	C834.808777,124.138397 828.880371,124.138397 822.366028,124.138397 
	C822.366028,130.266418 822.366028,136.383728 822.366028,143.000916 
z"/>
<path fill="#FDFDFD" opacity="1.000000" stroke="none" 
	d="
M117.072418,176.884232 
	C117.072609,171.583557 117.072609,166.774078 117.072609,161.419876 
	C109.826729,161.419876 102.900574,161.419937 95.974419,161.419876 
	C84.978180,161.419800 73.981384,161.489441 62.985847,161.401794 
	C49.328575,161.292938 42.019875,153.939789 41.965755,140.384918 
	C41.942478,134.554062 41.820812,128.715973 42.052605,122.893463 
	C42.427952,113.465042 49.802498,105.301888 59.090122,105.184692 
	C84.546761,104.863457 110.010109,105.073952 135.730194,105.073952 
	C135.730194,111.327148 135.730194,117.385391 135.730194,123.841537 
	C110.839554,123.841537 86.099190,123.841537 61.114830,123.841537 
	C61.114830,130.145370 61.114830,136.057175 61.114830,142.552994 
	C66.782135,142.552994 72.375427,142.552979 77.968712,142.552994 
	C90.131218,142.553024 102.293961,142.504318 114.456161,142.565842 
	C128.669006,142.637726 135.962296,149.980179 135.985901,164.133850 
	C135.995346,169.798279 136.151291,175.471451 135.897720,181.125275 
	C135.475220,190.546402 128.060364,198.694901 118.796173,198.810501 
	C93.345291,199.128082 67.887856,198.920090 42.196079,198.920090 
	C42.196079,192.621048 42.196079,186.565842 42.196079,180.102615 
	C52.204128,180.102615 61.991627,180.102615 71.779121,180.102615 
	C85.607719,180.102615 99.436333,180.107620 113.264915,180.096771 
	C115.153801,180.095291 117.583939,180.770615 117.072418,176.884232 
z"/>
<path fill="#FDFDFD" opacity="1.000000" stroke="none" 
	d="
M342.989594,171.000000 
	C342.989594,180.472977 342.989594,189.445953 342.989594,198.710098 
	C336.714966,198.710098 330.654602,198.710098 324.162842,198.710098 
	C324.162842,186.443024 324.162842,174.196594 324.162842,161.688171 
	C305.325684,161.688171 286.913788,161.688171 268.073639,161.688171 
	C268.073639,173.837341 268.073639,186.085648 268.073639,198.665939 
	C261.602753,198.665939 255.548172,198.665939 249.124893,198.665939 
	C249.071930,197.472809 248.966675,196.199615 248.966125,194.926407 
	C248.956238,171.940018 248.931595,148.953583 248.969391,125.967255 
	C248.991562,112.489655 256.500488,105.019012 270.001221,104.994560 
	C287.324280,104.963188 304.647400,104.962471 321.970459,104.994553 
	C335.416351,105.019447 342.951447,112.564690 342.981934,126.026459 
	C343.015503,140.850906 342.989594,155.675476 342.989594,171.000000 
M297.500031,123.882378 
	C287.725403,123.882378 277.950806,123.882378 268.084717,123.882378 
	C268.084717,130.302597 268.084717,136.218903 268.084717,142.356827 
	C286.741974,142.356827 305.166321,142.356827 323.766479,142.356827 
	C323.766479,136.125107 323.766479,130.090439 323.766479,123.882378 
	C315.131317,123.882378 306.815704,123.882378 297.500031,123.882378 
z"/>
<path fill="#FCFCFC" opacity="1.000000" stroke="none" 
	d="
M530.917480,192.924896 
	C530.917480,182.299393 530.917480,172.163864 530.917480,161.726700 
	C512.193115,161.726700 493.790497,161.726700 474.871704,161.726700 
	C474.871704,173.831650 474.871704,186.064896 474.871704,198.647980 
	C468.327545,198.647980 462.287720,198.647980 455.715179,198.647980 
	C455.715179,197.436234 455.715179,196.173264 455.715179,194.910309 
	C455.715210,172.097824 455.685120,149.285263 455.726196,126.472862 
	C455.751862,112.226135 463.009644,105.007858 477.236267,104.989922 
	C494.387238,104.968292 511.538300,104.960365 528.689270,104.992302 
	C542.141174,105.017357 549.795837,112.570496 549.828979,125.986588 
	C549.888611,150.107864 549.845825,174.229401 549.845825,198.677460 
	C543.552673,198.677460 537.498291,198.677460 530.917480,198.677460 
	C530.917480,196.951889 530.917480,195.183365 530.917480,192.924896 
M517.492065,123.883690 
	C503.339783,123.883690 489.187500,123.883690 474.959137,123.883690 
	C474.959137,130.258957 474.959137,136.318436 474.959137,142.279205 
	C493.777161,142.279205 512.220398,142.279205 530.665771,142.279205 
	C530.665771,136.050430 530.665771,130.124832 530.665771,123.883690 
	C526.431702,123.883690 522.460327,123.883690 517.492065,123.883690 
z"/>
<path fill="#FBFBFB" opacity="1.000000" stroke="none" 
	d="
M603.920166,163.079681 
	C595.380859,154.529221 587.091614,146.228729 578.119446,137.244385 
	C578.119446,158.331818 578.119446,178.383347 578.119446,198.719452 
	C571.732056,198.719452 565.674316,198.719452 559.505676,198.719452 
	C559.369995,198.244110 559.128967,197.793335 559.128601,197.342361 
	C559.106323,170.199783 559.119690,143.057190 559.083801,115.914635 
	C559.077820,111.368401 560.527649,107.726059 564.902283,105.812950 
	C569.561951,103.775200 573.188965,105.605110 576.520203,108.948738 
	C594.149292,126.643425 611.840149,144.276581 629.485779,161.954849 
	C630.760010,163.231476 631.844604,164.697464 633.971191,167.195953 
	C633.971191,145.676437 633.971191,125.697266 633.971191,105.352371 
	C640.523621,105.352371 646.569641,105.352371 653.017639,105.352371 
	C653.073730,106.492989 653.189575,107.755661 653.190063,109.018387 
	C653.200378,134.995438 653.148804,160.972641 653.239502,186.949371 
	C653.257080,191.983673 652.355225,196.285965 647.150208,198.339508 
	C642.150269,200.312180 638.593689,197.824005 635.236023,194.433807 
	C624.924561,184.022385 614.531494,173.691711 603.920166,163.079681 
z"/>
<path fill="#FBFBFB" opacity="1.000000" stroke="none" 
	d="
M731.010742,123.900803 
	C726.863953,123.900803 723.214661,123.900803 719.252502,123.900803 
	C719.252502,142.617447 719.252502,161.153137 719.252502,180.113251 
	C731.582764,180.113251 743.822266,180.113251 756.307861,180.113251 
	C756.307861,186.468475 756.307861,192.404404 756.307861,198.674866 
	C725.098083,198.674866 693.920410,198.674866 662.531860,198.674866 
	C662.531860,192.590775 662.531860,186.662659 662.531860,180.326782 
	C674.928101,180.326782 687.169556,180.326782 699.715210,180.326782 
	C699.715210,161.381714 699.715210,142.841599 699.715210,123.899437 
	C687.368835,123.899437 675.122070,123.899437 662.602356,123.899437 
	C662.602356,117.578087 662.602356,111.649979 662.602356,105.350677 
	C693.742126,105.350677 724.925781,105.350677 756.336731,105.350677 
	C756.336731,111.332199 756.336731,117.268997 756.336731,123.900803 
	C747.997803,123.900803 739.753052,123.900803 731.010742,123.900803 
z"/>
<path fill="#FCFCFC" opacity="1.000000" stroke="none" 
	d="
M183.022873,153.000000 
	C183.022873,143.188400 183.022873,133.876816 183.022873,123.982254 
	C170.511398,123.982254 158.150940,123.982254 145.563889,123.982254 
	C145.563889,117.475426 145.563889,111.549454 145.563889,105.302162 
	C176.690994,105.302162 207.749222,105.302162 239.184814,105.302162 
	C239.184814,111.200943 239.184814,117.239052 239.184814,123.713852 
	C226.958023,123.713852 214.730118,123.713852 202.132599,123.713852 
	C202.132599,148.871017 202.132599,173.603363 202.132599,198.669891 
	C195.712662,198.669891 189.652649,198.669891 183.022873,198.669891 
	C183.022873,183.675476 183.022873,168.587738 183.022873,153.000000 
z"/>
<path fill="#FCFCFC" opacity="1.000000" stroke="none" 
	d="
M389.835144,158.999908 
	C389.835144,147.202499 389.835144,135.905090 389.835144,124.013687 
	C377.256195,124.013687 364.898224,124.013687 352.326782,124.013687 
	C352.326782,117.497597 352.326782,111.571518 352.326782,105.312965 
	C383.487518,105.312965 414.655853,105.312965 446.011230,105.312965 
	C446.011230,111.356857 446.011230,117.298340 446.011230,123.710709 
	C433.790497,123.710709 421.562836,123.710709 408.930115,123.710709 
	C408.930115,148.879333 408.930115,173.585388 408.930115,198.647385 
	C402.486145,198.647385 396.441833,198.647385 389.835144,198.647385 
	C389.835144,185.654678 389.835144,172.577301 389.835144,158.999908 
z"/>
<path fill="#060606" opacity="1.000000" stroke="none" 
	d="
M298.000061,123.882378 
	C306.815704,123.882378 315.131317,123.882378 323.766479,123.882378 
	C323.766479,130.090439 323.766479,136.125107 323.766479,142.356827 
	C305.166321,142.356827 286.741974,142.356827 268.084717,142.356827 
	C268.084717,136.218903 268.084717,130.302597 268.084717,123.882378 
	C277.950806,123.882378 287.725403,123.882378 298.000061,123.882378 
z"/>
<path fill="#070707" opacity="1.000000" stroke="none" 
	d="
M517.990479,123.883690 
	C522.460327,123.883690 526.431702,123.883690 530.665771,123.883690 
	C530.665771,130.124832 530.665771,136.050430 530.665771,142.279205 
	C512.220398,142.279205 493.777161,142.279205 474.959137,142.279205 
	C474.959137,136.318436 474.959137,130.258957 474.959137,123.883690 
	C489.187500,123.883690 503.339783,123.883690 517.990479,123.883690 
z"/>
</svg>